<?xml version="1.0" encoding="utf-8"?>
<!-- Generator: Adobe Illustrator 25.4.1, SVG Export Plug-In . SVG Version: 6.00 Build 0)  -->
<svg version="1.1" id="Layer_1" xmlns="http://www.w3.org/2000/svg" xmlns:xlink="http://www.w3.org/1999/xlink" x="0px" y="0px"
	 viewBox="0 0 60 60" style="enable-background:new 0 0 60 60;" xml:space="preserve">
<style type="text/css">
	.st0{fill:#EFBE26;}
	.st1{fill:#097BF9;}
</style>
<g>
	<path class="st0" d="M28.21,7.37v45.25H16.44V33.62h-3.52v19.01H1.15V7.37h11.77v16.18h3.52V7.37H28.21z"/>
	<path class="st1" d="M57.87,21.07H46.94v-3.35c0-1.57-0.14-2.56-0.42-2.99c-0.28-0.43-0.75-0.64-1.4-0.64
		c-0.71,0-1.24,0.29-1.61,0.87c-0.36,0.58-0.55,1.45-0.55,2.63c0,1.51,0.2,2.65,0.61,3.41c0.39,0.76,1.5,1.69,3.33,2.77
		c5.24,3.11,8.54,5.66,9.9,7.65c1.36,1.99,2.04,5.21,2.04,9.64c0,3.22-0.38,5.6-1.13,7.13c-0.75,1.53-2.21,2.81-4.37,3.84
		s-4.68,1.55-7.55,1.55c-3.15,0-5.84-0.6-8.06-1.79c-2.23-1.19-3.69-2.71-4.37-4.56c-0.69-1.84-1.03-4.46-1.03-7.85v-2.96h10.93
		v5.51c0,1.7,0.15,2.79,0.46,3.27c0.31,0.49,0.85,0.73,1.64,0.73s1.36-0.31,1.75-0.92c0.38-0.61,0.57-1.53,0.57-2.74
		c0-2.66-0.36-4.41-1.09-5.23c-0.75-0.82-2.58-2.19-5.51-4.11c-2.93-1.94-4.86-3.34-5.81-4.22c-0.95-0.88-1.74-2.09-2.36-3.63
		c-0.62-1.55-0.94-3.52-0.94-5.93c0-3.47,0.44-6,1.33-7.6c0.89-1.6,2.32-2.86,4.29-3.76c1.98-0.9,4.36-1.36,7.16-1.36
		c3.06,0,5.66,0.49,7.81,1.48c2.15,0.99,3.58,2.23,4.28,3.73c0.7,1.5,1.05,4.05,1.05,7.64V21.07z"/>
</g>
</svg>
